#!OML:ASF Y:\EmotionMaleHayes\Project 1\Capture day 1\Session 1\Male1.ASF
:FULLY-SPECIFIED
:DEGREES
680
root 19.4672 16.8139 -1.55931 213.679 101.462 217.238
lowerback 6.12695 3.12471 -7.85514
upperback 8.13591 4.64554 -5.33267
thorax 4.98553 2.2747 -1.27254
lowerneck -22.8086 1.26389 1.54365
upperneck 19.9431 2.69544 -5.52231
head 10.2443 0.707166 -1.80513
rclavicle -1.66979e-014 -1.03368e-014
rhumerus -28.0518 21.6251 -96.4944
rradius 31.6418
rwrist 3.90532
rhand -4.59929 -33.1509
rfingers 7.12502
rthumb 21.1784 -62.0141
lclavicle -1.66979e-014 -1.03368e-014
lhumerus -17.3757 -12.0952 85.1015
lradius 23.7552
lwrist -11.0813
lhand -17.4371 -24.9904
lfingers 7.12502
lthumb 8.81351 4.8056
rfemur -6.12298 -1.26118 7.55057
rtibia 63.0444
rfoot -6.22197 -5.12694
rtoes 12.9599
lfemur -3.74418 -1.81414 -29.9264
ltibia 22.446
lfoot -15.5765 4.21719
ltoes 0.918634
681
root 19.5751 16.8355 -1.56193 214.719 101.473 218.274
lowerback 6.27262 3.04121 -8.14863
upperback 8.06237 4.49962 -5.34063
thorax 4.81324 2.19177 -1.12753
lowerneck -22.5266 1.2458 1.5313
upperneck 19.9441 2.6326 -5.35173
head 10.1871 0.702863 -1.75121
rclavicle 1.59028e-015 5.725e-014
rhumerus -28.2976 21.1594 -96.3726
rradius 32.0313
rwrist 3.35291
rhand -5.37034 -33.0741
rfingers 7.12502
rthumb 20.4376 -62.0185
lclavicle 1.59028e-015 5.725e-014
lhumerus -17.2034 -12.0865 85.0548
lradius 23.6492
lwrist -11.6375
lhand -17.3618 -25.1604
lfingers 7.12502
lthumb 8.88618 4.63252
rfemur -7.50791 -1.60391 7.54051
rtibia 63.2279
rfoot -7.27734 -5.02658
rtoes 12.3448
lfemur -3.08393 -1.73971 -30.1728
ltibia 21.9501
lfoot -15.6364 4.1268
ltoes 0.915341
682
root 19.6819 16.8572 -1.56506 214.518 101.365 218.063
lowerback 6.52686 2.97548 -8.15626
upperback 7.94955 4.35703 -5.27713
thorax 4.54687 2.12402 -1.06998
lowerneck -22.4784 1.26995 1.52471
upperneck 20.19 2.63409 -5.15521
head 10.2631 0.725325 -1.6822
rclavicle 2.38542e-014 -1.98785e-014
rhumerus -28.6058 20.5726 -96.2417
rradius 32.3407
rwrist 3.18908
rhand -6.10314 -32.8491
rfingers 7.12502
rthumb 19.7332 -61.8675
lclavicle 2.38542e-014 -1.98785e-014
lhumerus -17.0973 -12.1409 85.0304
lradius 23.5126
lwrist -12.3354
lhand -17.4199 -25.4456
lfingers 7.12502
lthumb 8.83011 4.34968
rfemur -8.86498 -1.87254 7.88005
rtibia 63.2953
rfoot -8.21887 -4.98524
rtoes 12.5641
lfemur -2.34206 -1.71036 -30.1092
ltibia 21.3153
lfoot -15.5635 4.1657
ltoes 0.689492
683
root 19.7997 16.878 -1.5713 214.843 101.394 218.475
lowerback 6.59311 2.86348 -8.41057
upperback 8.01138 4.19635 -5.20206
thorax 4.56388 2.02734 -0.849903
lowerneck -22.7211 1.42033 1.59149
upperneck 20.4307 2.81581 -5.0914
head 10.4013 0.814992 -1.64514
rclavicle 2.50469e-014 4.77083e-015
rhumerus -28.5563 20.3622 -95.9845
rradius 32.6124
rwrist 2.58253
rhand -6.41383 -32.8026
rfingers 7.12502
rthumb 19.4345 -61.8513
lclavicle 2.50469e-014 4.77083e-015
lhumerus -16.8736 -12.2392 85.0155
lradius 23.5253
lwrist -12.6667
lhand -16.8313 -25.0094
lfingers 7.12502
lthumb 9.39815 4.76108
rfemur -9.90994 -2.08361 7.94098
rtibia 62.9793
rfoot -8.71008 -4.97275
rtoes 13.7433
lfemur -1.36983 -1.66628 -30.3214
ltibia 20.5093
lfoot -15.5357 4.19398
ltoes -0.342383
684
root 19.9205 16.896 -1.57642 215.485 101.471 219.221
lowerback 6.54642 2.75611 -8.75192
upperback 8.09589 4.05836 -5.13719
thorax 4.66707 1.93503 -0.587244
lowerneck -22.6022 1.53162 1.74792
upperneck 20.3785 2.91092 -5.08294
head 10.366 0.874147 -1.65282
rclavicle 1.47101e-014 2.54444e-014
rhumerus -28.4513 20.0164 -95.6729
rradius 32.9198
rwrist 1.71764
rhand -6.68666 -32.7651
rfingers 7.12502
rthumb 19.1722 -61.8402
lclavicle 1.47101e-014 2.54444e-014
lhumerus -16.7721 -12.5945 85.0634
lradius 23.7322
lwrist -12.5271
lhand -16.2853 -24.4688
lfingers 7.12502
lthumb 9.92489 5.27726
rfemur -10.9016 -2.25081 7.93754
rtibia 62.542
rfoot -9.82791 -4.62538
rtoes 12.2651
lfemur -0.414709 -1.63284 -30.6199
ltibia 19.772
lfoot -15.6056 4.13291
ltoes -0.792036
685
root 20.0399 16.9091 -1.58161 215.18 101.362 218.994
lowerback 6.63119 2.68138 -8.73628
upperback 8.08866 3.93763 -5.02672
thorax 4.60894 1.87146 -0.480642
lowerneck -22.4458 1.53576 1.85554
upperneck 20.4089 2.87641 -5.05653
head 10.3477 0.872519 -1.66678
rclavicle -9.54166e-015 7.95139e-015
rhumerus -28.5325 19.4359 -95.3662
rradius 33.3488
rwrist 1.01299
rhand -7.00162 -32.7133
rfingers 7.12502
rthumb 18.8693 -61.8181
lclavicle -9.54166e-015 7.95139e-015
lhumerus -16.7975 -13.0435 85.1832
lradius 23.8472
lwrist -12.5112
lhand -16.5215 -24.6046
lfingers 7.12502
lthumb 9.69705 5.15221
rfemur -11.9312 -2.44462 8.26946
rtibia 61.9617
rfoot -10.6297 -4.61936
rtoes 10.3935
lfemur 0.461096 -1.65717 -30.6041
ltibia 19.1383
lfoot -15.6934 4.0391
ltoes -0.569811
686
root 20.1573 16.9213 -1.58365 214.95 101.308 218.82
lowerback 6.74672 2.63651 -8.80336
upperback 8.06149 3.84803 -4.91849
thorax 4.50783 1.821 -0.334271
lowerneck -22.2983 1.47553 1.72995
upperneck 20.3831 2.77338 -4.8189
head 10.301 0.846705 -1.57654
rclavicle -3.97569e-015 -5.725e-014
rhumerus -28.6765 19.0368 -95.1002
rradius 33.7159
rwrist 0.233984
rhand -7.44599 -32.5012
rfingers 7.12502
rthumb 18.4418 -61.647
lclavicle -3.97569e-015 -5.725e-014
lhumerus -16.7375 -13.1982 85.2904
lradius 23.8597
lwrist -12.7776
lhand -16.5853 -24.8482
lfingers 7.12502
lthumb 9.63551 4.91143
rfemur -12.9356 -2.5624 8.56532
rtibia 61.2014
rfoot -11.3212 -4.63488
rtoes 9.85542
lfemur 1.27729 -1.63849 -30.6035
ltibia 18.5231
lfoot -15.8754 3.96339
ltoes -0.98409
687
root 20.2708 16.9351 -1.58414 215.936 101.339 219.81
lowerback 6.79882 2.52582 -9.19425
upperback 8.01534 3.67093 -4.85928
thorax 4.41966 1.71297 -0.0562873
lowerneck -21.9997 1.4905 1.74292
upperneck 20.2382 2.74778 -4.6788
head 10.1904 0.858674 -1.53146
rclavicle 1.15295e-014 -4.37326e-014
rhumerus -28.8803 18.7308 -94.9111
rradius 34.1438
rwrist -0.669251
rhand -7.94693 -32.271
rfingers 7.12502
rthumb 17.9599 -61.4617
lclavicle 1.15295e-014 -4.37326e-014
lhumerus -16.773 -13.0342 85.3226
lradius 24.0996
lwrist -13.0013
lhand -16.2335 -24.9164
lfingers 7.12502
lthumb 9.97485 4.82722
rfemur -13.9705 -2.68178 8.59386
rtibia 60.3668
rfoot -12.0306 -4.66962
rtoes 9.89236
lfemur 2.0341 -1.66375 -30.8805
ltibia 17.8574
lfoot -16.0743 3.8953
ltoes -1.1936
688
root 20.384 16.9471 -1.59052 217.484 101.33 221.322
lowerback 6.83881 2.37076 -9.54852
upperback 7.98319 3.44232 -4.83321
thorax 4.36392 1.58229 0.170416
lowerneck -21.9462 1.61177 2.1907
upperneck 20.2351 2.83839 -4.96311
head 10.1941 0.901915 -1.69332
rclavicle 2.18663e-015 1.51076e-014
rhumerus -29.0019 18.3171 -94.6786
rradius 34.7557
rwrist -1.57871
rhand -8.21681 -32.3735
rfingers 7.12502
rthumb 17.7002 -61.5879
lclavicle 2.18663e-015 1.51076e-014
lhumerus -16.8604 -13.2203 85.3635
lradius 24.4684
lwrist -12.7185
lhand -16.2362 -25.1247
lfingers 7.12502
lthumb 9.97226 4.61903
rfemur -15.0196 -2.9203 8.51511
rtibia 59.4734
rfoot -12.622 -4.79817
rtoes 9.2357
lfemur 2.76011 -1.76669 -31.3047
ltibia 17.2156
lfoot -16.2021 3.87041
ltoes -1.19126
689
root 20.4968 16.9553 -1.5956 217.539 101.229 221.354
lowerback 6.94667 2.29668 -9.57575
upperback 7.94626 3.3127 -4.71009
thorax 4.26305 1.51368 0.31387
lowerneck -22.158 1.56603 2.07282
upperneck 20.4624 2.75911 -4.71378
head 10.3053 0.88108 -1.59885
rclavicle 2.08724e-014 -8.42847e-014
rhumerus -29.0775 17.8905 -94.3861
rradius 35.1596
rwrist -2.35392
rhand -8.51504 -32.4737
rfingers 7.12502
rthumb 17.4132 -61.7138
lclavicle 2.08724e-014 -8.42847e-014
lhumerus -16.936 -13.7445 85.5225
lradius 24.8
lwrist -12.21
lhand -16.5086 -25.2677
lfingers 7.12502
lthumb 9.70952 4.48854
rfemur -16.0138 -3.05142 8.82308
rtibia 58.5385
rfoot -13.1704 -5.05784
rtoes 8.94396
lfemur 3.43394 -1.72982 -31.3242
ltibia 16.72
lfoot -16.3577 3.88265
ltoes -2.40433
